<svg width="120" height="24" viewBox="0 0 120 24" fill="none" xmlns="http://www.w3.org/2000/svg">
<path d="M1.9 19C1.75333 19 1.63333 18.9533 1.54 18.86C1.44667 18.7667 1.4 18.6467 1.4 18.5V5.5C1.4 5.35333 1.44667 5.23333 1.54 5.14C1.63333 5.04667 1.75333 5 1.9 5H7.34C9.06 5 10.4133 5.4 11.4 6.2C12.4 6.98667 12.9 8.10667 12.9 9.56C12.9 10.5067 12.6667 11.3067 12.2 11.96C11.7467 12.6133 11.1467 13.1067 10.4 13.44L13.16 18.36C13.2 18.44 13.22 18.5133 13.22 18.58C13.22 18.6867 13.1733 18.7867 13.08 18.88C13 18.96 12.9 19 12.78 19H10.14C9.88667 19 9.7 18.94 9.58 18.82C9.46 18.6867 9.37333 18.5667 9.32 18.46L7.04 14.06H4.98V18.5C4.98 18.6467 4.93333 18.7667 4.84 18.86C4.74667 18.9533 4.62667 19 4.48 19H1.9ZM4.98 11.24H7.3C7.92667 11.24 8.39333 11.0867 8.7 10.78C9.02 10.4733 9.18 10.0533 9.18 9.52C9.18 9 9.02667 8.58 8.72 8.26C8.42667 7.94 7.95333 7.78 7.3 7.78H4.98V11.24ZM18.8281 19.2C18.0681 19.2 17.3881 19.0267 16.7881 18.68C16.2015 18.3333 15.7415 17.8267 15.4081 17.16C15.0748 16.48 14.9081 15.6533 14.9081 14.68V9.1C14.9081 8.95333 14.9548 8.83333 15.0481 8.74C15.1415 8.64667 15.2615 8.6 15.4081 8.6H17.9081C18.0548 8.6 18.1748 8.64667 18.2681 8.74C18.3615 8.83333 18.4081 8.95333 18.4081 9.1V14.56C18.4081 15.8667 18.9948 16.52 20.1681 16.52C20.7148 16.52 21.1481 16.3533 21.4681 16.02C21.8015 15.6733 21.9681 15.1867 21.9681 14.56V9.1C21.9681 8.95333 22.0148 8.83333 22.1081 8.74C22.2015 8.64667 22.3215 8.6 22.4681 8.6H24.9681C25.1148 8.6 25.2348 8.64667 25.3281 8.74C25.4215 8.83333 25.4681 8.95333 25.4681 9.1V18.5C25.4681 18.6467 25.4215 18.7667 25.3281 18.86C25.2348 18.9533 25.1148 19 24.9681 19H22.6481C22.5148 19 22.3948 18.9533 22.2881 18.86C22.1948 18.7667 22.1481 18.6467 22.1481 18.5V17.74C21.8015 18.22 21.3481 18.5867 20.7881 18.84C20.2415 19.08 19.5881 19.2 18.8281 19.2ZM34.1806 19.2C33.434 19.2 32.8073 19.0733 32.3006 18.82C31.8073 18.5667 31.4006 18.2467 31.0806 17.86V18.5C31.0806 18.6467 31.0273 18.7667 30.9206 18.86C30.8273 18.9533 30.714 19 30.5806 19H28.3206C28.174 19 28.054 18.9533 27.9606 18.86C27.8673 18.7667 27.8206 18.6467 27.8206 18.5V5.3C27.8206 5.15333 27.8673 5.03333 27.9606 4.94C28.054 4.84667 28.174 4.8 28.3206 4.8H30.7606C30.9073 4.8 31.0273 4.84667 31.1206 4.94C31.214 5.03333 31.2606 5.15333 31.2606 5.3V9.58C31.5806 9.23333 31.9806 8.95333 32.4606 8.74C32.954 8.51333 33.5273 8.4 34.1806 8.4C34.8473 8.4 35.434 8.51333 35.9406 8.74C36.4606 8.95333 36.9006 9.26667 37.2606 9.68C37.6206 10.0933 37.9006 10.5867 38.1006 11.16C38.3006 11.7333 38.414 12.38 38.4406 13.1C38.454 13.3533 38.4606 13.5867 38.4606 13.8C38.4606 14 38.454 14.2333 38.4406 14.5C38.414 15.2467 38.294 15.9133 38.0806 16.5C37.8806 17.0733 37.6006 17.5667 37.2406 17.98C36.8806 18.38 36.4473 18.6867 35.9406 18.9C35.434 19.1 34.8473 19.2 34.1806 19.2ZM33.1006 16.52C33.554 16.52 33.9073 16.4267 34.1606 16.24C34.414 16.0533 34.594 15.8 34.7006 15.48C34.8206 15.16 34.894 14.8067 34.9206 14.42C34.9473 14.0067 34.9473 13.5933 34.9206 13.18C34.894 12.7933 34.8206 12.44 34.7006 12.12C34.594 11.8 34.414 11.5467 34.1606 11.36C33.9073 11.1733 33.554 11.08 33.1006 11.08C32.6873 11.08 32.3473 11.1733 32.0806 11.36C31.814 11.5333 31.614 11.7667 31.4806 12.06C31.3473 12.34 31.274 12.6467 31.2606 12.98C31.2473 13.2333 31.2406 13.48 31.2406 13.72C31.2406 13.96 31.2473 14.2133 31.2606 14.48C31.274 14.84 31.3406 15.1733 31.4606 15.48C31.5806 15.7867 31.774 16.04 32.0406 16.24C32.3073 16.4267 32.6606 16.52 33.1006 16.52ZM46.7978 19.2C46.0511 19.2 45.4245 19.0733 44.9178 18.82C44.4245 18.5667 44.0178 18.2467 43.6978 17.86V18.5C43.6978 18.6467 43.6445 18.7667 43.5378 18.86C43.4445 18.9533 43.3311 19 43.1978 19H40.9378C40.7911 19 40.6711 18.9533 40.5778 18.86C40.4845 18.7667 40.4378 18.6467 40.4378 18.5V5.3C40.4378 5.15333 40.4845 5.03333 40.5778 4.94C40.6711 4.84667 40.7911 4.8 40.9378 4.8H43.3778C43.5245 4.8 43.6445 4.84667 43.7378 4.94C43.8311 5.03333 43.8778 5.15333 43.8778 5.3V9.58C44.1978 9.23333 44.5978 8.95333 45.0778 8.74C45.5711 8.51333 46.1445 8.4 46.7978 8.4C47.4645 8.4 48.0511 8.51333 48.5578 8.74C49.0778 8.95333 49.5178 9.26667 49.8778 9.68C50.2378 10.0933 50.5178 10.5867 50.7178 11.16C50.9178 11.7333 51.0311 12.38 51.0578 13.1C51.0711 13.3533 51.0778 13.5867 51.0778 13.8C51.0778 14 51.0711 14.2333 51.0578 14.5C51.0311 15.2467 50.9111 15.9133 50.6978 16.5C50.4978 17.0733 50.2178 17.5667 49.8578 17.98C49.4978 18.38 49.0645 18.6867 48.5578 18.9C48.0511 19.1 47.4645 19.2 46.7978 19.2ZM45.7178 16.52C46.1711 16.52 46.5245 16.4267 46.7778 16.24C47.0311 16.0533 47.2111 15.8 47.3178 15.48C47.4378 15.16 47.5111 14.8067 47.5378 14.42C47.5645 14.0067 47.5645 13.5933 47.5378 13.18C47.5111 12.7933 47.4378 12.44 47.3178 12.12C47.2111 11.8 47.0311 11.5467 46.7778 11.36C46.5245 11.1733 46.1711 11.08 45.7178 11.08C45.3045 11.08 44.9645 11.1733 44.6978 11.36C44.4311 11.5333 44.2311 11.7667 44.0978 12.06C43.9645 12.34 43.8911 12.6467 43.8778 12.98C43.8645 13.2333 43.8578 13.48 43.8578 13.72C43.8578 13.96 43.8645 14.2133 43.8778 14.48C43.8911 14.84 43.9578 15.1733 44.0778 15.48C44.1978 15.7867 44.3911 16.04 44.6578 16.24C44.9245 16.4267 45.2778 16.52 45.7178 16.52ZM53.555 19C53.4083 19 53.2883 18.9533 53.195 18.86C53.1017 18.7667 53.055 18.6467 53.055 18.5V9.1C53.055 8.95333 53.1017 8.83333 53.195 8.74C53.2883 8.64667 53.4083 8.6 53.555 8.6H55.915C56.0483 8.6 56.1617 8.64667 56.255 8.74C56.3617 8.83333 56.415 8.95333 56.415 9.1V18.5C56.415 18.6467 56.3617 18.7667 56.255 18.86C56.1617 18.9533 56.0483 19 55.915 19H53.555ZM53.535 7.1C53.3883 7.1 53.2683 7.05333 53.175 6.96C53.0817 6.86667 53.035 6.74667 53.035 6.6V4.82C53.035 4.67333 53.0817 4.55333 53.175 4.46C53.2683 4.35333 53.3883 4.3 53.535 4.3H55.915C56.0617 4.3 56.1817 4.35333 56.275 4.46C56.3817 4.55333 56.435 4.67333 56.435 4.82V6.6C56.435 6.74667 56.3817 6.86667 56.275 6.96C56.1817 7.05333 56.0617 7.1 55.915 7.1H53.535ZM63.4092 19.2C62.5426 19.2 61.8026 19.1067 61.1892 18.92C60.5892 18.72 60.0959 18.48 59.7092 18.2C59.3359 17.92 59.0559 17.6333 58.8692 17.34C58.6826 17.0333 58.5826 16.7733 58.5692 16.56C58.5559 16.4133 58.6026 16.2933 58.7092 16.2C58.8159 16.0933 58.9292 16.04 59.0492 16.04H61.3292C61.3692 16.04 61.4026 16.0467 61.4292 16.06C61.4559 16.0733 61.4959 16.1 61.5492 16.14C61.7226 16.2333 61.8959 16.3533 62.0692 16.5C62.2426 16.6333 62.4426 16.7533 62.6692 16.86C62.8959 16.9667 63.1692 17.02 63.4892 17.02C63.8626 17.02 64.1759 16.9467 64.4292 16.8C64.6826 16.6533 64.8092 16.4333 64.8092 16.14C64.8092 15.9267 64.7492 15.7533 64.6292 15.62C64.5092 15.4733 64.2626 15.3333 63.8892 15.2C63.5292 15.0667 62.9826 14.9333 62.2492 14.8C61.5559 14.64 60.9492 14.4333 60.4292 14.18C59.9092 13.9133 59.5092 13.5733 59.2292 13.16C58.9492 12.7333 58.8092 12.22 58.8092 11.62C58.8092 11.0867 58.9826 10.5733 59.3292 10.08C59.6759 9.58667 60.1826 9.18667 60.8492 8.88C61.5159 8.56 62.3359 8.4 63.3092 8.4C64.0826 8.4 64.7492 8.49333 65.3092 8.68C65.8826 8.85333 66.3626 9.08 66.7492 9.36C67.1492 9.64 67.4492 9.92667 67.6492 10.22C67.8492 10.5133 67.9559 10.78 67.9692 11.02C67.9826 11.1533 67.9426 11.2733 67.8492 11.38C67.7559 11.4733 67.6492 11.52 67.5292 11.52H65.4492C65.3959 11.52 65.3426 11.5133 65.2892 11.5C65.2359 11.4733 65.1892 11.4467 65.1492 11.42C64.9892 11.34 64.8292 11.2333 64.6692 11.1C64.5092 10.9667 64.3226 10.8467 64.1092 10.74C63.8959 10.6333 63.6292 10.58 63.3092 10.58C62.9492 10.58 62.6692 10.66 62.4692 10.82C62.2692 10.98 62.1692 11.1867 62.1692 11.44C62.1692 11.6133 62.2226 11.7733 62.3292 11.92C62.4492 12.0667 62.6826 12.2 63.0292 12.32C63.3892 12.44 63.9426 12.5733 64.6892 12.72C65.6092 12.8667 66.3426 13.1067 66.8892 13.44C67.4359 13.76 67.8226 14.14 68.0492 14.58C68.2759 15.0067 68.3892 15.46 68.3892 15.94C68.3892 16.58 68.1959 17.1467 67.8092 17.64C67.4359 18.1333 66.8759 18.52 66.1292 18.8C65.3826 19.0667 64.4759 19.2 63.4092 19.2ZM70.6839 19C70.5372 19 70.4172 18.9533 70.3239 18.86C70.2306 18.7667 70.1839 18.6467 70.1839 18.5V5.3C70.1839 5.15333 70.2306 5.03333 70.3239 4.94C70.4172 4.84667 70.5372 4.8 70.6839 4.8H73.2439C73.3906 4.8 73.5106 4.84667 73.6039 4.94C73.6972 5.03333 73.7439 5.15333 73.7439 5.3V9.76C74.1039 9.34667 74.5439 9.02 75.0639 8.78C75.5972 8.52667 76.2106 8.4 76.9039 8.4C77.6772 8.4 78.3639 8.57333 78.9639 8.92C79.5772 9.26667 80.0572 9.78 80.4039 10.46C80.7506 11.1267 80.9239 11.9467 80.9239 12.92V18.5C80.9239 18.6467 80.8772 18.7667 80.7839 18.86C80.6906 18.9533 80.5706 19 80.4239 19H77.8439C77.7106 19 77.5906 18.9533 77.4839 18.86C77.3906 18.7667 77.3439 18.6467 77.3439 18.5V13.04C77.3439 12.4133 77.1906 11.9333 76.8839 11.6C76.5906 11.2533 76.1506 11.08 75.5639 11.08C75.0172 11.08 74.5772 11.2533 74.2439 11.6C73.9106 11.9333 73.7439 12.4133 73.7439 13.04V18.5C73.7439 18.6467 73.6972 18.7667 73.6039 18.86C73.5106 18.9533 73.3906 19 73.2439 19H70.6839Z" fill="#27AE60"/>
<path d="M88.4695 19C88.3229 19 88.2095 18.96 88.1295 18.88C88.0495 18.7867 88.0095 18.6733 88.0095 18.54V5.46C88.0095 5.32667 88.0495 5.22 88.1295 5.14C88.2095 5.04667 88.3229 5 88.4695 5H89.5295C89.6629 5 89.7695 5.04667 89.8495 5.14C89.9429 5.22 89.9895 5.32667 89.9895 5.46V18.54C89.9895 18.6733 89.9429 18.7867 89.8495 18.88C89.7695 18.96 89.6629 19 89.5295 19H88.4695ZM96.9983 19C96.8649 19 96.7516 18.96 96.6583 18.88C96.5783 18.7867 96.5383 18.6733 96.5383 18.54V6.78H92.6983C92.5649 6.78 92.4516 6.74 92.3583 6.66C92.2783 6.56667 92.2383 6.45333 92.2383 6.32V5.48C92.2383 5.33333 92.2783 5.22 92.3583 5.14C92.4516 5.04667 92.5649 5 92.6983 5H102.338C102.485 5 102.598 5.04667 102.678 5.14C102.772 5.22 102.818 5.33333 102.818 5.48V6.32C102.818 6.45333 102.772 6.56667 102.678 6.66C102.598 6.74 102.485 6.78 102.338 6.78H98.5183V18.54C98.5183 18.6733 98.4716 18.7867 98.3783 18.88C98.2983 18.96 98.1849 19 98.0383 19H96.9983Z" fill="black"/>
</svg>
