<svg width="24" height="24" viewBox="0 0 24 24" fill="none" xmlns="http://www.w3.org/2000/svg">
<path fill-rule="evenodd" clip-rule="evenodd" d="M1.25 12C1.25 6.06294 6.06294 1.25 12 1.25C17.9371 1.25 22.75 6.06294 22.75 12C22.75 17.9371 17.9371 22.75 12 22.75C6.06294 22.75 1.25 17.9371 1.25 12ZM12 2.75C6.89136 2.75 2.75 6.89136 2.75 12C2.75 17.1086 6.89136 21.25 12 21.25C17.1086 21.25 21.25 17.1086 21.25 12C21.25 6.89136 17.1086 2.75 12 2.75Z" fill="white"/>
<path fill-rule="evenodd" clip-rule="evenodd" d="M12 15.25C12.4142 15.25 12.75 15.5858 12.75 16V22C12.75 22.4142 12.4142 22.75 12 22.75C11.5858 22.75 11.25 22.4142 11.25 22V16C11.25 15.5858 11.5858 15.25 12 15.25Z" fill="white"/>
<path fill-rule="evenodd" clip-rule="evenodd" d="M1.25 12C1.25 11.5858 1.58579 11.25 2 11.25H8C8.41421 11.25 8.75 11.5858 8.75 12C8.75 12.4142 8.41421 12.75 8 12.75H2C1.58579 12.75 1.25 12.4142 1.25 12Z" fill="white"/>
<path fill-rule="evenodd" clip-rule="evenodd" d="M15.25 12C15.25 11.5858 15.5858 11.25 16 11.25H22C22.4142 11.25 22.75 11.5858 22.75 12C22.75 12.4142 22.4142 12.75 22 12.75H16C15.5858 12.75 15.25 12.4142 15.25 12Z" fill="white"/>
<path d="M16 12C16 14.2092 14.2092 16 12 16C9.79085 16 8 14.2092 8 12C8 9.79085 9.79085 8 12 8C14.2092 8 16 9.79085 16 12Z" fill="white"/>
<path fill-rule="evenodd" clip-rule="evenodd" d="M16 12C16 14.2092 14.2092 16 12 16C9.79085 16 8 14.2092 8 12C8 9.79085 9.79085 8 12 8C14.2092 8 16 9.79085 16 12Z" fill="white"/>
<path fill-rule="evenodd" clip-rule="evenodd" d="M12 8.75C10.2051 8.75 8.75 10.2051 8.75 12C8.75 13.7949 10.2051 15.25 12 15.25C13.7949 15.25 15.25 13.7949 15.25 12C15.25 10.2051 13.7949 8.75 12 8.75ZM7.25 12C7.25 9.37664 9.37664 7.25 12 7.25C14.6234 7.25 16.75 9.37664 16.75 12C16.75 14.6234 14.6234 16.75 12 16.75C9.37664 16.75 7.25 14.6234 7.25 12Z" fill="white"/>
</svg>
