<svg width="24" height="24" viewBox="0 0 24 24" fill="none" xmlns="http://www.w3.org/2000/svg">
<path d="M6.75 8C6.75 5.1005 9.10051 2.75 12 2.75C14.8995 2.75 17.25 5.1005 17.25 8V16C17.25 18.8995 14.8995 21.25 12 21.25C11.5858 21.25 11.25 21.5858 11.25 22C11.25 22.4142 11.5858 22.75 12 22.75C15.4927 22.75 18.3658 20.0972 18.7145 16.6966C20.9989 16.352 22.75 14.3805 22.75 12C22.75 9.61949 20.9989 7.648 18.7145 7.30339C18.3658 3.90276 15.4927 1.25 12 1.25C8.5073 1.25 5.63416 3.90276 5.28551 7.30338C3.00113 7.64799 1.25 9.61949 1.25 12C1.25 14.6234 3.37665 16.75 6 16.75C6.41421 16.75 6.75 16.4142 6.75 16V8Z" fill="#219653"/>
</svg>
